<?xml version="1.0" standalone="no"?>
<!DOCTYPE svg PUBLIC "-//W3C//DTD SVG 20010904//EN"
 "http://www.w3.org/TR/2001/REC-SVG-20010904/DTD/svg10.dtd">
<svg version="1.0" xmlns="http://www.w3.org/2000/svg"
 width="5220.000000pt" height="1142.000000pt" viewBox="0 0 5220.000000 1142.000000"
 preserveAspectRatio="xMidYMid meet">

<g transform="translate(0.000000,1142.000000) scale(0.100000,-0.100000)"
fill="#000000" stroke="none">
<path d="M20535 11200 c-346 -54 -610 -256 -680 -520 -19 -71 -19 -229 0 -300
49 -186 207 -352 438 -460 45 -21 206 -88 357 -148 417 -167 499 -209 575
-294 113 -125 126 -328 29 -475 -185 -282 -764 -306 -1170 -48 -32 20 -90 62
-127 93 l-68 55 -75 -74 c-42 -41 -85 -87 -97 -103 l-21 -29 50 -45 c55 -50
203 -151 278 -189 97 -49 226 -93 352 -120 114 -23 151 -27 314 -27 151 0 203
4 280 21 415 92 662 339 677 678 13 288 -121 497 -412 643 -44 22 -233 101
-420 177 -187 75 -371 153 -409 173 -98 51 -177 127 -211 203 -25 56 -27 70
-23 153 4 74 9 101 32 145 54 105 161 180 312 218 111 28 332 23 456 -10 120
-32 240 -90 335 -161 l72 -54 86 90 c47 49 84 95 82 102 -1 6 -43 41 -91 78
-138 103 -287 171 -476 214 -79 18 -361 27 -445 14z"/>
<path d="M10570 11035 l0 -125 440 0 440 0 0 -1175 0 -1175 165 0 165 0 0
1175 0 1175 435 0 435 0 0 125 0 125 -1040 0 -1040 0 0 -125z"/>
<path d="M13163 10268 c3 -859 4 -897 24 -988 65 -297 174 -476 372 -609 169
-113 340 -156 616 -155 278 0 447 43 616 156 184 123 297 295 359 547 37 149
40 228 40 1093 l0 848 -155 0 -155 0 0 -799 c0 -480 -4 -840 -10 -902 -23
-229 -87 -386 -205 -505 -79 -81 -156 -124 -274 -156 -101 -27 -313 -29 -415
-4 -208 50 -359 194 -430 406 -53 161 -56 215 -56 1124 l0 836 -165 0 -166 0
4 -892z"/>
<path d="M15980 9860 l0 -1300 156 0 156 0 -5 863 c-4 830 -8 970 -41 1315 -2
23 0 42 4 42 3 0 67 -104 141 -230 120 -205 270 -447 552 -885 49 -77 127
-198 173 -270 46 -71 184 -287 308 -480 l224 -350 171 -3 171 -2 0 1300 0
1300 -156 0 -155 0 4 -892 c3 -719 7 -935 21 -1107 9 -117 15 -216 12 -218 -2
-3 -44 62 -92 144 -48 81 -122 207 -164 278 -42 72 -183 294 -311 495 -129
201 -370 575 -534 832 l-300 468 -167 0 -168 0 0 -1300z"/>
<path d="M18790 9860 l0 -1300 160 0 160 0 0 1300 0 1300 -160 0 -160 0 0
-1300z"/>
<path d="M22220 9860 l0 -1300 165 0 165 0 0 1300 0 1300 -165 0 -165 0 0
-1300z"/>
<path d="M23898 11063 c-46 -124 -211 -560 -321 -853 -379 -1004 -611 -1618
-615 -1632 -4 -17 8 -18 160 -18 l165 0 26 73 c24 67 171 478 236 662 l29 80
532 0 533 0 40 -110 c21 -60 81 -229 132 -375 51 -146 99 -280 105 -297 l12
-33 169 0 c101 0 169 4 169 10 0 5 -113 310 -251 677 -138 367 -356 947 -484
1288 l-233 620 -183 3 -184 2 -37 -97z m286 -360 c65 -199 303 -890 352 -1020
l23 -63 -444 0 c-245 0 -445 3 -445 6 0 3 32 96 71 207 102 289 300 876 333
985 15 50 30 92 34 92 4 0 38 -93 76 -207z"/>
<path d="M25690 9860 l0 -1300 156 0 155 0 -4 898 c-4 709 -8 935 -20 1077
-19 211 -20 253 -8 240 5 -6 81 -131 168 -280 88 -148 370 -598 628 -1000 257
-401 498 -776 533 -832 l66 -103 168 0 168 0 0 1300 0 1300 -156 0 -155 0 4
-872 c3 -730 6 -910 22 -1101 16 -197 16 -254 2 -236 -2 2 -68 114 -147 249
-133 227 -257 424 -974 1543 l-268 417 -169 0 -169 0 0 -1300z"/>
<path d="M6337 10335 c-584 -73 -1118 -336 -1538 -755 -396 -395 -635 -875
-699 -1400 -14 -120 -12 -367 5 -490 13 -96 62 -350 69 -357 2 -2 123 199 270
447 376 632 478 773 770 1066 240 239 423 381 699 542 572 334 1259 468 1872
366 214 -35 449 -101 592 -165 36 -16 68 -27 71 -25 2 3 -47 56 -109 118 -344
342 -789 563 -1294 644 -138 22 -562 28 -708 9z"/>
<path d="M7756 9449 c-86 -20 -168 -73 -324 -208 -86 -74 -440 -381 -787 -681
-346 -300 -916 -793 -1265 -1096 -349 -302 -921 -797 -1270 -1100 -349 -302
-1040 -900 -1535 -1329 -495 -428 -1004 -869 -1131 -980 -127 -110 -472 -409
-767 -665 -295 -255 -537 -468 -537 -474 0 -12 280 0 460 20 670 73 1329 307
1936 689 167 105 361 247 544 398 174 145 515 484 2685 2677 2227 2250 2411
2434 2465 2460 25 12 47 24 48 26 2 1 -9 26 -24 54 -52 96 -171 183 -285 209
-53 13 -160 12 -213 0z"/>
<path d="M8810 9197 c0 -2 11 -30 25 -61 75 -171 150 -443 181 -661 26 -177
26 -557 1 -730 -106 -723 -477 -1401 -1047 -1911 -246 -221 -390 -319 -962
-658 -230 -137 -418 -251 -418 -255 0 -9 260 -58 384 -72 145 -17 472 -6 611
20 668 125 1279 567 1653 1196 242 407 365 858 365 1335 0 627 -205 1174 -605
1622 -63 70 -188 187 -188 175z"/>
<path d="M8440 8942 c-37 -65 62 35 -1705 -1718 -3464 -3436 -3276 -3247
-3466 -3479 -654 -798 -1030 -1759 -1066 -2724 -4 -116 -3 -172 4 -170 5 2 84
90 174 194 91 105 511 590 934 1080 423 490 1015 1174 1314 1520 300 347 775
896 1055 1220 281 325 740 856 1021 1180 494 570 1014 1172 1640 1896 165 191
314 372 332 401 84 138 84 338 0 480 -31 54 -111 129 -165 157 l-40 21 -32
-58z"/>
<path d="M30660 7440 c-758 -73 -1390 -380 -1866 -907 -683 -757 -1004 -1913
-903 -3258 62 -840 320 -1587 746 -2163 380 -514 949 -898 1547 -1042 266 -65
321 -70 744 -70 341 0 402 2 511 20 820 134 1516 619 1960 1365 148 249 251
475 339 745 156 478 227 917 239 1490 10 511 -36 964 -141 1382 -81 319 -157
529 -291 803 -165 338 -372 626 -622 865 -439 422 -963 670 -1593 755 -137 19
-536 27 -670 15z m630 -740 c535 -94 972 -383 1299 -860 351 -511 541 -1249
541 -2095 -1 -1709 -733 -2865 -1920 -3031 -142 -20 -500 -15 -625 9 -205 39
-369 94 -545 182 -431 217 -781 614 -1008 1145 -231 538 -339 1224 -304 1938
30 619 143 1102 362 1547 228 464 551 799 965 1000 216 104 400 155 695 189
97 11 420 -3 540 -24z"/>
<path d="M12000 7310 c-9 -5 -68 -175 -360 -1030 -82 -239 -255 -745 -385
-1125 -130 -379 -303 -886 -385 -1125 -144 -423 -275 -804 -765 -2235 -130
-379 -310 -906 -400 -1170 -90 -264 -167 -488 -170 -497 -7 -17 17 -18 407
-18 l414 0 83 257 c81 252 197 610 495 1528 80 248 146 456 146 462 0 6 7 14
16 17 9 3 614 6 1344 6 l1329 0 51 -162 c29 -90 87 -273 130 -408 43 -135 126
-396 185 -580 59 -184 144 -452 190 -595 46 -143 102 -320 125 -393 l41 -132
429 0 c237 0 430 2 430 4 0 3 -54 163 -121 358 -66 194 -268 787 -449 1318
-181 531 -484 1422 -675 1980 -190 558 -506 1483 -701 2055 -194 572 -389
1141 -431 1265 l-78 225 -443 0 c-244 0 -447 -2 -452 -5z m473 -785 c177 -621
480 -1606 814 -2645 91 -283 188 -589 217 -680 l52 -165 -1125 -3 c-618 -1
-1126 -1 -1127 1 -2 2 16 64 40 138 25 74 95 292 156 484 61 193 149 465 195
605 231 705 517 1658 681 2268 24 92 29 103 48 100 17 -2 26 -20 49 -103z"/>
<path d="M16407 7313 c-4 -3 -7 -1626 -7 -3605 l0 -3598 2100 0 2100 0 -2 347
-3 347 -1690 1 -1690 0 -3 1377 -2 1378 1382 2 1383 3 0 340 0 340 -1383 3
-1382 2 2 1183 3 1182 1638 3 1637 2 -2 348 -3 347 -2036 3 c-1120 1 -2039 -1
-2042 -5z"/>
<path d="M22147 7313 c-4 -3 -7 -1626 -7 -3605 l0 -3598 410 0 410 0 0 1555 0
1555 678 0 677 0 87 -153 c81 -144 393 -687 933 -1627 131 -228 353 -615 493
-860 140 -245 259 -451 265 -457 7 -10 113 -13 468 -13 253 0 459 2 459 4 0 3
-42 76 -93 163 -52 87 -233 394 -402 683 -170 289 -397 676 -505 860 -179 304
-702 1194 -821 1397 l-48 82 37 11 c20 5 42 10 49 10 6 0 65 16 130 36 742
224 1217 692 1389 1370 18 72 40 191 48 265 20 171 21 494 1 661 -85 725 -480
1224 -1165 1471 -312 113 -622 167 -1065 187 -244 11 -2418 14 -2428 3z m2583
-687 c335 -43 615 -135 811 -266 94 -63 235 -212 293 -308 158 -265 213 -664
146 -1058 -96 -558 -483 -920 -1122 -1048 -255 -51 -355 -56 -1158 -56 l-740
0 0 1381 0 1380 818 -4 c701 -3 836 -6 952 -21z"/>
<path d="M35555 7308 c-3 -7 -4 -1628 -3 -3603 l3 -3590 1070 0 c1165 0 1161
0 1503 60 985 173 1717 699 2136 1536 134 267 228 533 300 846 168 731 162
1725 -14 2424 -207 819 -592 1401 -1192 1799 -431 286 -929 452 -1553 516
-220 23 -2242 34 -2250 12z m2040 -678 c881 -83 1495 -452 1874 -1127 285
-507 419 -1259 371 -2078 -51 -855 -294 -1510 -729 -1958 -328 -338 -751 -548
-1281 -636 -231 -38 -322 -43 -892 -48 l-568 -5 0 2931 0 2931 558 0 c306 0
607 -5 667 -10z"/>
<path d="M43643 7258 c-12 -35 -128 -373 -258 -753 -130 -379 -301 -879 -380
-1110 -79 -231 -252 -737 -385 -1125 -133 -388 -306 -894 -385 -1125 -79 -231
-252 -737 -385 -1125 -133 -388 -313 -914 -400 -1170 -87 -256 -179 -523 -204
-595 -25 -71 -46 -133 -46 -137 0 -5 185 -7 412 -6 l411 3 73 220 c40 121 141
431 224 690 84 259 216 668 295 910 l142 440 1341 3 1341 2 71 -222 c39 -123
107 -333 150 -468 43 -135 140 -438 215 -675 75 -236 171 -536 213 -665 l77
-235 428 -3 c244 -1 427 2 427 7 0 5 -34 107 -76 227 -41 121 -190 554 -329
964 -140 410 -311 912 -380 1115 -70 204 -238 699 -375 1100 -137 402 -407
1194 -600 1760 -193 567 -428 1256 -522 1533 l-171 502 -452 0 -451 0 -21 -62z
m541 -868 c169 -591 535 -1777 761 -2470 143 -440 275 -857 275 -873 0 -16
-69 -17 -1119 -17 -616 0 -1122 4 -1125 8 -5 8 31 122 329 1042 299 921 461
1455 661 2168 57 205 104 375 104 377 0 7 35 12 41 6 3 -3 36 -112 73 -241z"/>
<path d="M46920 7316 c0 -3 218 -446 697 -1416 119 -239 286 -579 373 -755 87
-176 366 -741 621 -1255 l464 -935 3 -1422 2 -1423 405 0 405 0 0 1414 0 1414
451 908 c248 500 545 1098 659 1329 114 231 399 806 634 1279 234 472 426 860
426 862 0 2 -190 4 -423 4 l-423 0 -234 -507 c-128 -280 -356 -775 -507 -1101
-150 -327 -273 -596 -273 -598 0 -9 -256 -555 -400 -854 -83 -173 -181 -377
-217 -452 -55 -115 -70 -138 -88 -138 -15 0 -27 11 -40 38 -107 219 -291 614
-500 1072 -224 492 -380 832 -700 1525 -50 110 -176 383 -280 608 l-188 407
-433 0 c-239 0 -434 -2 -434 -4z"/>
</g>
</svg>
